<?xml version="1.0" encoding="utf-8"?>
<!-- Generator: Adobe Illustrator 22.1.0, SVG Export Plug-In . SVG Version: 6.00 Build 0)  -->
<svg version="1.1" xmlns="http://www.w3.org/2000/svg" xmlns:xlink="http://www.w3.org/1999/xlink" x="0px" y="0px"
	 viewBox="0 0 381.6 286.2" style="enable-background:new 0 0 381.6 286.2;" xml:space="preserve">
<style type="text/css">
	.st0{fill:#FFFFFF;}
	.st1{fill:none;stroke:#000000;stroke-width:3.1262;stroke-miterlimit:10;}
	.st2{fill:#F6F6F6;}
	.st3{fill:#0075BF;stroke:#FFFFFF;stroke-width:1.9045;stroke-miterlimit:10;}
	.st4{fill:#0075BF;stroke:#FFFFFF;stroke-width:2.4943;stroke-miterlimit:10;}
	.st5{fill:#0075BF;stroke:#FFFFFF;stroke-width:2.4454;stroke-miterlimit:10;}
	.st6{fill:none;stroke:#FFFFFF;stroke-width:2.4454;stroke-miterlimit:10;}
	.st7{fill:#0075BF;}
	.st8{fill:none;stroke:#000000;stroke-width:2.5327;stroke-miterlimit:10;}
</style>
<g id="Layer_2">
</g>
<g id="Layer_1">
	<g id="Rosado">
		<g>
			<path class="st0" d="M60.3,107.3c-7.7,0-14-6-14-13.3s6.3-13.3,14-13.3"/>
			<path class="st0" d="M159.7,82.7c7.6,0,13.8,5.9,13.8,13.1s-6.2,13.1-13.8,13.1"/>
			<path class="st0" d="M60.3,75.3c-2.5,5.8-3.8,12.2-3.8,18.9c0,28.2,23.9,51,53.5,51s53.5-22.8,53.5-51c0-6.7-1.3-13-3.8-18.9
				 M83.7,98c-3.2,0-5.8-2.6-5.8-5.8s2.6-5.8,5.8-5.8s5.8,2.6,5.8,5.8C89.5,95.4,86.9,98,83.7,98z M136,98c-3.2,0-5.8-2.6-5.8-5.8
				s2.6-5.8,5.8-5.8s5.8,2.6,5.8,5.8C141.8,95.4,139.2,98,136,98z"/>
			<g>
				<path class="st1" d="M95.2,112.5c0,5.3,6.6,9.6,14.8,9.6"/>
				<path class="st1" d="M124.7,112.5c0,5.3-6.6,9.6-14.8,9.6"/>
			</g>
		</g>
		<g>
			<path class="st0" d="M223.9,119.9c-7.7,0.7-14.5-4.6-15.1-12c-0.7-7.3,5-13.8,12.7-14.6"/>
			<path class="st0" d="M323.4,95c7.5,1,12.8,7.7,11.8,14.9s-7.9,12.2-15.4,11.1"/>
			<path class="st0" d="M271.8,48.4c-29.5,0-53.5,22.8-53.5,51s23.9,51,53.5,51s53.5-22.8,53.5-51S301.3,48.4,271.8,48.4z
				 M245.5,99.9c-3.2,0-5.8-2.6-5.8-5.8s2.6-5.8,5.8-5.8s5.8,2.6,5.8,5.8S248.7,99.9,245.5,99.9z M285.5,136.4
				c-9.1,1.1-18,1.7-27.1-0.3c-2-0.5-1.2-3.6,0.9-3.1c8.7,2,17.4,1.2,26.2,0.2C287.6,132.8,287.6,136.1,285.5,136.4z M286.7,128
				c-4.9-0.4-9.7-1.5-14.6-1.7c-2.5-0.1-5-0.1-7.5,0.4c-2.7,0.6-5.3,1.4-8,2.1c-2,0.5-2.9-2.7-0.9-3.1c2.7-0.6,5.3-1.5,8-2.1
				c2.6-0.5,5.2-0.7,7.8-0.6c5.1,0.2,10.1,1.3,15.2,1.7C288.7,124.9,288.8,128.2,286.7,128z M285.8,119.5c-8-4.8-20-6.2-28-0.8
				c-1.8,1.2-3.4-1.7-1.6-2.8c9-6,22.4-4.6,31.3,0.8C289.3,117.8,287.6,120.6,285.8,119.5z M297.8,99.9c-3.2,0-5.8-2.6-5.8-5.8
				s2.6-5.8,5.8-5.8s5.8,2.6,5.8,5.8S301,99.9,297.8,99.9z"/>
		</g>
		<g>
			<g>
				<path d="M218.7,85c3.8,10.4,11.6,19,21.7,23.7c2.2,1,4.5,1.9,6.9,2.5c1.5,0.4,2.2-1.9,0.6-2.4c-10.3-2.8-19.2-9.7-24.4-19.1
					c-1.1-1.9-1.8-3.6-2.5-5.5c-0.2-0.6-0.8-1-1.5-0.8C218.9,83.6,218.4,84.3,218.7,85L218.7,85z"/>
			</g>
		</g>
		<g>
			<g>
				<path d="M244.4,134.2c-6.5-2.2-12.6-5.5-17.9-9.8c-1.2-0.9-2.4-1.9-3.5-3c-1-0.9-2.5,0.6-1.5,1.5c5.2,4.8,11.2,8.7,17.7,11.5
					c1.5,0.6,3,1.2,4.6,1.8C245.1,136.6,245.7,134.6,244.4,134.2L244.4,134.2z"/>
			</g>
		</g>
		<g>
			<g>
				<path d="M324.6,84.1c-1.2,9.5-8.9,16.5-16.9,20.9c-2.5,1.4-5.1,2.6-7.7,3.7c-0.6,0.3-0.7,1.2-0.4,1.7c0.4,0.6,1.1,0.7,1.7,0.4
					c9.3-3.9,18.7-9.4,23.4-18.8c1.2-2.5,2.1-5.2,2.4-7.9c0.1-0.7-0.6-1.2-1.2-1.2C325.1,82.9,324.7,83.4,324.6,84.1L324.6,84.1z"/>
			</g>
		</g>
		<g>
			<g>
				<path d="M302.2,135.1c5.8-2.1,11.4-4.9,16.6-8.3c1.3-0.9,0.1-3-1.2-2.1c-5,3.3-10.4,6-16,8c-0.6,0.2-1,0.8-0.9,1.5
					C300.9,134.9,301.6,135.4,302.2,135.1L302.2,135.1z"/>
			</g>
		</g>
		<path class="st0" d="M151.2,233.4c-7.7,0-14-6-14-13.3s6.2-13.3,14-13.3"/>
		<path class="st0" d="M250.6,208.8c7.6,0,13.8,5.9,13.8,13.1s-6.2,13.1-13.8,13.1"/>
		<path class="st0" d="M200.9,169.3c-29.5,0-53.5,22.8-53.5,51c0,28.2,23.9,51,53.5,51s53.5-22.8,53.5-51
			C254.4,192.2,230.5,169.3,200.9,169.3z M174.7,224.1c-3.2,0-5.8-2.6-5.8-5.8s2.6-5.8,5.8-5.8s5.8,2.6,5.8,5.8
			C180.5,221.5,177.9,224.1,174.7,224.1z M227,224.1c-3.2,0-5.8-2.6-5.8-5.8s2.6-5.8,5.8-5.8s5.8,2.6,5.8,5.8
			C232.8,221.5,230.2,224.1,227,224.1z"/>
		<g>
			<path class="st1" d="M186.2,238.6c0,5.3,6.6,9.6,14.8,9.6"/>
			<path class="st1" d="M215.7,238.6c0,5.3-6.6,9.6-14.8,9.6"/>
		</g>
		<g>
			<g>
				<path class="st2" d="M263.1,118.3c3.8-0.7,7.6-1,11.4-1.2c1,0,1-1.7,0-1.6c-4,0.2-7.9,0.6-11.8,1.2
					C261.6,116.9,262.1,118.5,263.1,118.3L263.1,118.3z"/>
			</g>
		</g>
	</g>
	<g id="Celeste">
		<g>
			<path class="st3" d="M58.9,67.4c0-27.7,23.4-50.2,52.3-50.2s52.3,22.5,52.3,50.2"/>
			<path class="st4" d="M152.1,78.9c-18.1,0.6-38.3,0.9-60.3,0.5C81.2,79.3,71,79,61.4,78.6c-0.3-0.1-0.7-0.3-1.2-0.6
				c-3-1.6-2.3-2.8-3.1-4.3c-0.4-0.8-0.9-1.2-1.2-1.5c-1.5-1.5-2.9-1.4-3-2.2c0-0.4,0.2-0.5,1.2-1.8c0.8-1.1,0.8-1.3,1.2-1.8
				c0.5-0.6,1.3-1.3,2.5-2.1c14.7,2.3,31.8,4.1,51.1,4.2c20.5,0.1,38.7-1.6,54.1-4c1.6,1.1,2.4,2.3,2.9,3c0.8,1.4,0.7,2.1,0.6,2.5
				c-0.1,0.3-0.2,0.5-0.4,0.8c-0.8,0.9-1.7,0.9-4.1,2.2c-0.9,0.5-1.6,0.9-2.1,1.4c-1.5,1.1-2.1,1.8-2.9,2.4
				C156.2,77.5,154.7,78.4,152.1,78.9z"/>
			<path class="st5" d="M125.4,68.1c-4.5,0.2-9.1,0.3-13.9,0.3c-5.1,0-10-0.1-14.7-0.3c-0.1-5.4-0.1-11,0.2-16.9
				c0.6-13.1,2.2-25.1,4.3-35.7c0.5-0.4,4.9-1.2,5.8-0.1c0,0,0.1,0.1,0.3,0.4c1.2,1.8,1.3,2.2,1.7,2.6c0.8,0.7,1.8,0.7,2.5,0.7
				c0.3,0,2.4,0,3.4-1.5c0.6-0.9,0.2-1.6,0.7-2.1c0.5-0.5,1.7-0.6,4.2,0.6c2.7,9.8,5.1,21.7,5.7,35.4
				C125.8,57.4,125.7,63,125.4,68.1z"/>
			<path class="st6" d="M119.5,68.3c-2.6,0.1-5.2,0.1-7.9,0.1c-2.8,0-5.6,0-8.3-0.1c1.2-8.2,2.1-17.1,2.8-26.4
				c0.6-8.9,0.9-17.4,1-25.4c0.5,2.4,2.6,4.1,4.8,4c1.7-0.1,3.3-1.3,4-3.1c0.2,3.3,1.6,21.2,1.8,24.6
				C117.8,45.7,119.2,64.5,119.5,68.3z"/>
		</g>
		<path d="M286.5,136.4c-9.1,1.1-18,1.7-27.1-0.3c-2-0.5-1.2-3.6,0.9-3.1c8.7,2,17.4,1.2,26.2,0.2
			C288.6,132.8,288.6,136.1,286.5,136.4z M287.7,127c-4.9-0.4-9.7-1.5-14.6-1.7c-2.5-0.1-5-0.1-7.5,0.4c-2.7,0.6-5.3,1.4-8,2.1
			c-2,0.5-2.9-2.7-0.9-3.1c2.7-0.6,5.3-1.5,8-2.1c2.6-0.5,5.2-0.7,7.8-0.6c5.1,0.2,10.1,1.3,15.2,1.7
			C289.7,123.9,289.8,127.2,287.7,127z M286.8,118.5c-8-4.8-20-6.2-28-0.8c-1.8,1.2-3.4-1.7-1.6-2.8c9-6,22.4-4.6,31.3,0.8
			C290.3,116.8,288.6,119.6,286.8,118.5z"/>
		<path class="st7" d="M297.1,123.4c-0.5-6.4,2.1-11.1,3.3-13c-7.5-1.4-17-2.6-28.1-2.5c-10.8,0.1-20,1.4-27.3,2.8
			c1,1.4,3.7,5.5,3.4,11.1c-0.3,6.5-4.2,10.7-5.4,11.9c2.7,2.1,13.8,10.1,30.2,9.7c14.7-0.4,24.6-7.3,27.5-9.5
			C299.5,132,297.5,128.4,297.1,123.4z M286.7,136.2c-9.3,1.1-18.5,1.8-27.8-0.3c-2.1-0.5-1.2-3.7,0.9-3.2c9,2.1,17.9,1.3,26.9,0.2
			C288.8,132.6,288.8,135.9,286.7,136.2z M287.8,127.6c-5-0.4-10-1.5-15-1.8c-2.6-0.1-5.2-0.1-7.7,0.4c-2.8,0.6-5.4,1.5-8.2,2.1
			c-2.1,0.5-3-2.7-0.9-3.2c2.7-0.7,5.4-1.6,8.2-2.1c2.6-0.5,5.3-0.7,8-0.6c5.2,0.2,10.4,1.3,15.6,1.8
			C289.9,124.5,289.9,127.8,287.8,127.6z M287,118.9c-8.2-5-20.5-6.4-28.8-0.9c-1.8,1.2-3.5-1.7-1.7-2.9c9.2-6.2,23-4.7,32.2,0.9
			C290.5,117.1,288.8,120,287,118.9z"/>
	</g>
	<path class="st8" d="M297.7,123c-0.5-6.7,2.2-11.6,3.4-13.6c-7.7-1.5-17.5-2.7-28.8-2.6c-11,0.1-20.6,1.4-28.1,2.9
		c1,1.4,3.8,5.7,3.5,11.6c-0.3,6.8-4.4,11.2-5.5,12.4c2.8,2.2,14.1,10.5,31,10.1c15.1-0.4,25.2-7.6,28.2-10
		C300.1,131.9,298.1,128.1,297.7,123z"/>
</g>
</svg>
