<?xml version="1.0" encoding="utf-8"?>
<!-- Generator: Adobe Illustrator 24.3.0, SVG Export Plug-In . SVG Version: 6.00 Build 0)  -->
<svg version="1.1" xmlns="http://www.w3.org/2000/svg" xmlns:xlink="http://www.w3.org/1999/xlink" x="0px" y="0px"
	 viewBox="0 0 381.61 286.21" style="enable-background:new 0 0 381.61 286.21;" xml:space="preserve">
<style type="text/css">
	.st0{fill:#FF49B0;}
	.st1{fill:none;stroke:#F6F6F6;stroke-width:3.1262;stroke-miterlimit:10;}
	.st2{fill:#F6F6F6;}
	.st3{fill:none;stroke:#FF49B0;stroke-width:6.3853;stroke-miterlimit:10;}
	.st4{fill:none;stroke:#FF49B0;stroke-width:6.6598;stroke-miterlimit:10;}
	.st5{fill:#0075BF;stroke:#FFFFFF;stroke-width:1.9045;stroke-miterlimit:10;}
	.st6{fill:#0075BF;stroke:#FFFFFF;stroke-width:2.4943;stroke-miterlimit:10;}
	.st7{fill:#0075BF;stroke:#FFFFFF;stroke-width:2.4454;stroke-miterlimit:10;}
	.st8{fill:none;stroke:#FFFFFF;stroke-width:2.4454;stroke-miterlimit:10;}
	.st9{fill:#F6F6F6;stroke:#F6F6F6;stroke-width:2.5327;stroke-miterlimit:10;}
	.st10{fill:#0075BF;}
</style>
<g id="Rosado">
	<g>
		<path class="st0" d="M60.26,107.34c-7.71,0-13.97-5.96-13.97-13.32S52.55,80.7,60.26,80.7"/>
		<path class="st0" d="M159.67,82.66c7.6,0,13.77,5.88,13.77,13.13c0,7.25-6.16,13.13-13.77,13.13"/>
		<path class="st0" d="M60.26,75.32c-2.45,5.84-3.79,12.22-3.79,18.9c0,28.16,23.94,51,53.48,51c29.54,0,53.48-22.83,53.48-51
			c0-6.67-1.34-13.04-3.79-18.88 M83.72,97.98c-3.19,0-5.78-2.59-5.78-5.78c0-3.19,2.59-5.78,5.78-5.78c3.19,0,5.78,2.59,5.78,5.78
			C89.5,95.4,86.91,97.98,83.72,97.98z M136.02,97.98c-3.19,0-5.78-2.59-5.78-5.78c0-3.19,2.59-5.78,5.78-5.78
			c3.19,0,5.78,2.59,5.78,5.78C141.8,95.4,139.21,97.98,136.02,97.98z"/>
		<g>
			<path class="st1" d="M95.19,112.49c0,5.29,6.6,9.58,14.77,9.58"/>
			<path class="st1" d="M124.72,112.49c0,5.29-6.6,9.58-14.77,9.58"/>
		</g>
	</g>
	<g>
		<path class="st0" d="M223.89,119.95c-7.68,0.72-14.46-4.64-15.15-11.96c-0.68-7.32,4.99-13.84,12.67-14.56"/>
		<path class="st0" d="M323.36,94.97c7.53,1.04,12.83,7.71,11.84,14.89c-0.99,7.18-7.9,12.16-15.44,11.12"/>
		<path class="st0" d="M271.77,48.37c-29.54,0-53.48,22.83-53.48,51s23.94,51,53.48,51c29.54,0,53.48-22.83,53.48-51
			S301.31,48.37,271.77,48.37z M245.54,99.87c-3.19,0-5.78-2.59-5.78-5.78s2.59-5.78,5.78-5.78s5.78,2.59,5.78,5.78
			S248.73,99.87,245.54,99.87z M285.55,136.35c-9.1,1.07-18.05,1.74-27.07-0.34c-2.05-0.47-1.18-3.61,0.87-3.14
			c8.72,2.01,17.42,1.25,26.21,0.22C287.64,132.84,287.61,136.11,285.55,136.35z M286.66,128.02c-4.89-0.43-9.72-1.46-14.63-1.72
			c-2.5-0.13-5.03-0.09-7.48,0.41c-2.69,0.55-5.3,1.44-7.97,2.08c-2.04,0.49-2.91-2.66-0.87-3.14c2.67-0.64,5.28-1.52,7.97-2.08
			c2.57-0.53,5.18-0.66,7.8-0.56c5.1,0.2,10.11,1.3,15.19,1.74C288.74,124.95,288.75,128.21,286.66,128.02z M285.84,119.48
			c-7.96-4.85-20.01-6.23-28.05-0.83c-1.75,1.17-3.38-1.65-1.65-2.82c8.96-6.02,22.44-4.59,31.34,0.83
			C289.28,117.75,287.64,120.57,285.84,119.48z M297.84,99.87c-3.19,0-5.78-2.59-5.78-5.78s2.59-5.78,5.78-5.78s5.78,2.59,5.78,5.78
			S301.03,99.87,297.84,99.87z"/>
	</g>
	<g>
		<g>
			<path class="st2" d="M218.68,84.98c3.83,10.37,11.65,19.04,21.7,23.72c2.23,1.04,4.54,1.9,6.91,2.54
				c1.52,0.41,2.17-1.95,0.65-2.36c-10.3-2.8-19.16-9.72-24.36-19.05c-1.05-1.89-1.84-3.61-2.54-5.5c-0.23-0.62-0.83-1.04-1.5-0.85
				C218.93,83.63,218.45,84.35,218.68,84.98L218.68,84.98z"/>
		</g>
	</g>
	<g>
		<g>
			<path class="st2" d="M244.42,134.16c-6.46-2.2-12.59-5.54-17.95-9.78c-1.19-0.95-2.35-1.94-3.46-2.97
				c-0.99-0.92-2.48,0.56-1.49,1.49c5.19,4.82,11.24,8.72,17.74,11.51c1.51,0.65,3.04,1.25,4.6,1.78
				C245.14,136.62,245.69,134.59,244.42,134.16L244.42,134.16z"/>
		</g>
	</g>
	<g>
		<g>
			<path class="st2" d="M324.58,84.09c-1.2,9.51-8.9,16.52-16.85,20.9c-2.5,1.38-5.1,2.58-7.73,3.7c-0.61,0.26-0.74,1.15-0.44,1.67
				c0.37,0.63,1.06,0.7,1.67,0.44c9.28-3.95,18.71-9.42,23.38-18.79c1.25-2.51,2.06-5.15,2.41-7.93c0.08-0.66-0.62-1.22-1.22-1.22
				C325.07,82.87,324.66,83.43,324.58,84.09L324.58,84.09z"/>
		</g>
	</g>
	<g>
		<g>
			<path class="st2" d="M302.22,135.12c5.84-2.1,11.43-4.85,16.62-8.26c1.31-0.86,0.09-2.98-1.23-2.11
				c-5.01,3.29-10.39,5.98-16.03,8.01c-0.62,0.22-1.04,0.83-0.85,1.5C300.88,134.87,301.59,135.35,302.22,135.12L302.22,135.12z"/>
		</g>
	</g>
	<path class="st0" d="M151.25,233.45c-7.71,0-13.97-5.96-13.97-13.32s6.25-13.32,13.97-13.32"/>
	<path class="st0" d="M250.65,208.77c7.6,0,13.77,5.88,13.77,13.13c0,7.25-6.16,13.13-13.77,13.13"/>
	<path class="st0" d="M200.93,169.33c-29.54,0-53.48,22.83-53.48,51c0,28.16,23.94,51,53.48,51c29.54,0,53.48-22.83,53.48-51
		C254.41,192.16,230.47,169.33,200.93,169.33z M174.7,224.1c-3.19,0-5.78-2.59-5.78-5.78c0-3.19,2.59-5.78,5.78-5.78
		s5.78,2.59,5.78,5.78C180.48,221.51,177.89,224.1,174.7,224.1z M227,224.1c-3.19,0-5.78-2.59-5.78-5.78c0-3.19,2.59-5.78,5.78-5.78
		s5.78,2.59,5.78,5.78C232.78,221.51,230.19,224.1,227,224.1z"/>
	<g>
		<path class="st1" d="M186.17,238.6c0,5.29,6.6,9.58,14.77,9.58"/>
		<path class="st1" d="M215.7,238.6c0,5.29-6.6,9.58-14.77,9.58"/>
	</g>
	<g>
		<g>
			<path class="st2" d="M263.11,118.31c3.77-0.65,7.58-1.03,11.4-1.17c1.05-0.04,1.05-1.67,0-1.63c-3.97,0.15-7.92,0.56-11.84,1.23
				C261.65,116.91,262.08,118.48,263.11,118.31L263.11,118.31z"/>
		</g>
	</g>
</g>
<g id="Celeste">
	<g>
		<path class="st5" d="M58.87,67.43c0-27.7,23.43-50.16,52.34-50.16s52.34,22.46,52.34,50.16"/>
		<path class="st6" d="M152.14,78.88c-18.12,0.6-38.35,0.88-60.32,0.54c-10.64-0.16-20.78-0.45-30.39-0.83
			c-0.27-0.12-0.7-0.32-1.18-0.58c-2.96-1.64-2.27-2.75-3.08-4.35c-0.39-0.77-0.89-1.23-1.16-1.49c-1.54-1.52-2.9-1.45-2.99-2.25
			c-0.04-0.37,0.24-0.46,1.25-1.8c0.79-1.06,0.75-1.26,1.25-1.8c0.52-0.56,1.33-1.34,2.5-2.08c14.65,2.32,31.83,4.05,51.06,4.16
			c20.49,0.12,38.73-1.63,54.11-4.02c1.56,1.12,2.41,2.31,2.85,3.04c0.82,1.36,0.74,2.06,0.65,2.46c-0.06,0.26-0.19,0.53-0.42,0.8
			c-0.78,0.93-1.74,0.91-4.12,2.23c-0.9,0.5-1.57,0.95-2.12,1.37c-1.49,1.14-2.12,1.81-2.88,2.44
			C156.2,77.48,154.66,78.4,152.14,78.88z"/>
		<path class="st7" d="M125.44,68.1c-4.46,0.19-9.09,0.29-13.88,0.3c-5.09,0.01-10-0.1-14.73-0.29c-0.14-5.36-0.1-11.01,0.16-16.91
			c0.59-13.15,2.22-25.11,4.3-35.66c0.52-0.36,4.91-1.17,5.83-0.14c0.02,0.03,0.1,0.15,0.27,0.39c1.23,1.84,1.26,2.19,1.7,2.59
			c0.76,0.7,1.83,0.68,2.47,0.68c0.3,0,2.44-0.05,3.39-1.5c0.59-0.91,0.2-1.6,0.74-2.09c0.54-0.5,1.71-0.55,4.17,0.61
			c2.71,9.77,5.05,21.71,5.69,35.39C125.81,57.38,125.74,62.95,125.44,68.1z"/>
		<path class="st8" d="M119.48,68.29c-2.59,0.06-5.22,0.1-7.91,0.1c-2.84,0-5.62-0.03-8.34-0.09c1.16-8.25,2.12-17.07,2.79-26.41
			c0.63-8.92,0.93-17.4,0.97-25.39c0.47,2.43,2.59,4.08,4.78,3.95c1.74-0.11,3.31-1.34,3.96-3.11c0.24,3.34,1.56,21.22,1.8,24.56
			C117.81,45.72,119.19,64.47,119.48,68.29z"/>
	</g>
	<path class="st9" d="M297.69,122.96c-0.48-6.65,2.16-11.63,3.36-13.59c-7.67-1.48-17.45-2.73-28.81-2.64
		c-11.04,0.09-20.55,1.41-28.05,2.95c1.03,1.44,3.76,5.7,3.5,11.62c-0.3,6.8-4.36,11.21-5.52,12.4
		c2.78,2.17,14.15,10.51,30.97,10.08c15.1-0.39,25.22-7.61,28.25-9.96C300.14,131.9,298.06,128.11,297.69,122.96z M285.55,136.35
		c-9.1,1.07-18.05,1.74-27.07-0.34c-2.05-0.47-1.18-3.61,0.87-3.14c8.72,2.01,17.42,1.25,26.21,0.22
		C287.64,132.84,287.61,136.11,285.55,136.35z M286.66,128.02c-4.89-0.43-9.72-1.46-14.63-1.72c-2.5-0.13-5.03-0.09-7.48,0.41
		c-2.69,0.55-5.3,1.44-7.97,2.08c-2.04,0.49-2.91-2.66-0.87-3.14c2.67-0.64,5.28-1.52,7.97-2.08c2.57-0.53,5.18-0.66,7.8-0.56
		c5.1,0.2,10.11,1.3,15.19,1.74C288.74,124.95,288.75,128.21,286.66,128.02z M285.84,119.48c-7.96-4.85-20.01-6.23-28.05-0.83
		c-1.75,1.17-3.38-1.65-1.65-2.82c8.96-6.02,22.44-4.59,31.34,0.83C289.28,117.75,287.64,120.57,285.84,119.48z"/>
	<path class="st10" d="M295.77,123.28c-0.45-6.1,2.02-10.67,3.13-12.47c-7.15-1.36-16.28-2.5-26.88-2.42
		c-10.3,0.08-19.17,1.3-26.17,2.71c0.96,1.33,3.51,5.23,3.26,10.65c-0.28,6.23-4.06,10.28-5.15,11.37
		c2.6,1.99,13.21,9.64,28.89,9.24c14.09-0.36,23.53-6.98,26.36-9.13C298.06,131.48,296.12,128.01,295.77,123.28z M285.55,136.35
		c-9.1,1.07-18.05,1.74-27.07-0.34c-2.05-0.47-1.18-3.61,0.87-3.14c8.72,2.01,17.42,1.25,26.21,0.22
		C287.64,132.84,287.61,136.11,285.55,136.35z M286.66,128.02c-4.89-0.43-9.72-1.46-14.63-1.72c-2.5-0.13-5.03-0.09-7.48,0.41
		c-2.69,0.55-5.3,1.44-7.97,2.08c-2.04,0.49-2.91-2.66-0.87-3.14c2.67-0.64,5.28-1.52,7.97-2.08c2.57-0.53,5.18-0.66,7.8-0.56
		c5.1,0.2,10.11,1.3,15.19,1.74C288.74,124.95,288.75,128.21,286.66,128.02z M285.84,119.48c-7.96-4.85-20.01-6.23-28.05-0.83
		c-1.75,1.17-3.38-1.65-1.65-2.82c8.96-6.02,22.44-4.59,31.34,0.83C289.28,117.75,287.64,120.57,285.84,119.48z"/>
</g>
</svg>
